<svg xmlns="http://www.w3.org/2000/svg" width="200" height="46.196" viewBox="0 0 200 46.196">
  <path fill="#0F9AD7" fill-rule="evenodd" d="M0 0v19.388c0 17.5 19.1 26.8 19.1 26.8s19.133-9.352 19.133-26.81V-.008H0zm10.464 12.188h3.432l.004 14.346h-3.44l.004-14.346zM20.788 8.4v21.975c0 2.848-2.31 4.322-5.155 4.322-2.846 0-5.174-1.244-5.174-3.662h.002c0-.95.77-1.72 1.718-1.72.95 0 1.7.8 1.7 1.72 0 1.8.1 2.9 1.7 2.947 1.713 0 1.713-1.196 1.713-3.607V8.4c0-2.846 2.308-4.322 5.154-4.322s5.2 1.2 5.2 3.663h-.003c0 .95-.77 1.72-1.72 1.7-.947 0-1.716-.77-1.716-1.718h-.002c0-1.756-.14-2.947-1.733-2.947C20.787 4.8 20.8 6 20.8 8.382zm8.477 6.2h-1.59v11.956h-3.442v-11.97h-1.587V12.19h6.62v2.397z" clip-rule="evenodd"/>
  <g fill="#465560">
    <path d="M55.507 14.618h-4.06v-2.386h10.872v2.386h-4.062v11.935h-2.75V14.618zM64.175 12.232h8.907v2.386h-6.157v3.463h5.677v2.388h-5.677v3.7h6.157v2.385h-8.907v-14.32zm3.034-2.386c1.025-.624 2.03-1.247 2.903-1.914l1.026 1.59c-.983.71-1.79 1.184-2.97 1.786l-.96-1.462zM75.266 16.167c0-2.623 1.55-4.15 5.174-4.15 1.354 0 2.8.2 4 .475l-.306 2.3c-1.18-.217-2.555-.366-3.56-.366-1.9 0-2.51.645-2.51 2.172v5.505c0 1.5.6 2.2 2.5 2.2 1.004 0 2.38-.15 3.56-.366l.305 2.345c-1.203.3-2.6.474-3.954.474-3.624 0-5.174-1.527-5.174-4.15v-6.44zM89.37 15.694v10.858h-2.685v-14.32h3.668l5.523 10.88v-10.88h2.686v14.32h-3.668L89.37 15.694zM104.37 26.553h-2.75v-14.32h2.75v14.32zM107.1 16.167c0-2.623 1.55-4.15 5.174-4.15 1.354 0 2.8.2 4 .475l-.307 2.3c-1.178-.217-2.555-.366-3.56-.366-1.897 0-2.51.645-2.51 2.172v5.505c0 1.5.6 2.2 2.5 2.2 1.003 0 2.38-.15 3.558-.366l.307 2.345c-1.2.3-2.6.474-3.953.474-3.624 0-5.175-1.527-5.175-4.15v-6.44zM128.867 22.36c0 2.386-1.398 4.408-5.502 4.408-4.105 0-5.502-2.022-5.502-4.41v-5.933c0-2.388 1.396-4.408 5.502-4.408 4.104 0 5.5 2 5.5 4.408v5.934zm-8.254-.15c0 1.4.7 2.2 2.8 2.2s2.75-.817 2.75-2.173v-5.634c0-1.354-.697-2.17-2.75-2.17s-2.752.816-2.752 2.17v5.606zM137.578 25.413h6.55v1.14h-7.837v-14.32h1.288v13.18zM148.342 26.553h-1.287v-14.32h1.287v14.32zM156.027 26.77c-1.266 0-2.86-.217-4.104-.69l.24-1.032c1.31.4 2.6.6 3.9.6 2.488 0 3.166-.73 3.166-2.56 0-2.214-.024-2.45-3.255-3.182-3.516-.795-3.908-1.42-3.908-4.3 0-2.345.873-3.57 4.52-3.57 1.266 0 2.8.2 3.8.495l-.154 1.076c-1.068-.236-2.422-.43-3.56-.43-2.88 0-3.272.688-3.272 2.472 0 2.3.1 2.4 3.1 3.183 3.82.9 4 1.5 4 4.2.025 2.27-.8 3.77-4.5 3.74zM163.998 26.553v-14.32h5.457c1.965 0 3.1.9 3.1 2.816v1.72c0 1.14-.48 1.893-1.658 2.3 1.135.1 2.1 1.1 2.1 2.666v1.87c0 1.98-1.463 2.925-3.34 2.925h-5.66zm7.29-11.653c0-.99-.565-1.526-1.81-1.526h-4.192v5.312h3.756c1.594 0 2.248-.817 2.248-1.958v-1.85zm.46 6.9c0-1.204-.72-2.02-2.402-2.02h-4.06v5.654h4.43c1.378 0 2.032-.666 2.032-1.807V21.8zM180.83 26.77c-3.732 0-5.086-1.808-5.086-4.26v-6.235c0-2.45 1.354-4.257 5.086-4.257 3.734 0 5.1 1.8 5.1 4.257v6.236c-.012 2.49-1.33 4.29-5.13 4.26zm3.8-4.303v-6.15c0-2.04-1.005-3.16-3.8-3.16s-3.8 1.12-3.8 3.16v6.15c0 2 1 3.2 3.8 3.16s3.8-1.127 3.77-3.16zM197.357 22.79h-6.768l-1.355 3.763h-1.268l5.066-14.32h1.898l5.07 14.32h-1.266l-1.377-3.763zm-6.375-1.097h5.982l-2.99-8.73-2.992 8.73z"/>
  </g>
</svg>
